<svg width="418" height="53" viewBox="0 0 418 53" fill="none" xmlns="http://www.w3.org/2000/svg">
<g filter="url(#filter0_di_702_64)">
<path d="M4.4 44L23.84 1.7H31.34L50.78 44H41.42L37.46 34.82H17.72L13.82 44H4.4ZM27.5 11.6L20.84 27.56H34.4L27.62 11.6H27.5ZM67.1197 44.66C58.8397 44.66 54.6997 40.64 54.6997 32.6V21.32H49.1197V14.54H54.6997V5.9H63.7597V14.54H72.4597V21.32H63.7597V32.24C63.7597 33.92 64.1397 35.18 64.8997 36.02C65.6997 36.86 66.9597 37.28 68.6797 37.28C69.1997 37.28 69.7397 37.22 70.2997 37.1C70.8997 36.98 71.5397 36.82 72.2197 36.62L73.5397 43.22C72.6997 43.66 71.6997 44 70.5397 44.24C69.3797 44.52 68.2397 44.66 67.1197 44.66ZM89.2095 44.66C80.9295 44.66 76.7895 40.64 76.7895 32.6V21.32H71.2095V14.54H76.7895V5.9H85.8495V14.54H94.5495V21.32H85.8495V32.24C85.8495 33.92 86.2295 35.18 86.9895 36.02C87.7895 36.86 89.0495 37.28 90.7695 37.28C91.2895 37.28 91.8295 37.22 92.3895 37.1C92.9895 36.98 93.6295 36.82 94.3095 36.62L95.6295 43.22C94.7895 43.66 93.7895 44 92.6295 44.24C91.4695 44.52 90.3295 44.66 89.2095 44.66ZM99.0073 44V14.54H107.887V19.64C109.287 16.2 112.287 14.3 116.887 13.94L119.527 13.76L120.067 21.38L114.967 21.92C110.487 22.36 108.247 24.64 108.247 28.76V44H99.0073ZM133.401 44.66C131.201 44.66 129.261 44.24 127.581 43.4C125.901 42.56 124.561 41.42 123.561 39.98C122.601 38.54 122.121 36.92 122.121 35.12C122.121 33 122.681 31.3 123.801 30.02C124.921 28.74 126.741 27.84 129.261 27.32C131.781 26.76 135.121 26.48 139.281 26.48H141.441V25.46C141.441 23.7 141.041 22.46 140.241 21.74C139.441 20.98 138.081 20.6 136.161 20.6C134.561 20.6 132.861 20.86 131.061 21.38C129.301 21.86 127.541 22.6 125.781 23.6L123.321 17.54C124.361 16.86 125.621 16.24 127.101 15.68C128.621 15.12 130.201 14.7 131.841 14.42C133.481 14.1 135.041 13.94 136.521 13.94C141.081 13.94 144.481 14.98 146.721 17.06C148.961 19.1 150.081 22.28 150.081 26.6V44H141.621V39.56C141.021 41.12 140.001 42.36 138.561 43.28C137.161 44.2 135.441 44.66 133.401 44.66ZM135.441 38.6C137.121 38.6 138.541 38.02 139.701 36.86C140.861 35.7 141.441 34.2 141.441 32.36V31.16H139.341C136.261 31.16 134.081 31.44 132.801 32C131.521 32.52 130.881 33.44 130.881 34.76C130.881 35.88 131.261 36.8 132.021 37.52C132.821 38.24 133.961 38.6 135.441 38.6ZM171.179 44.66C167.979 44.66 165.179 44.04 162.779 42.8C160.419 41.52 158.599 39.72 157.319 37.4C156.039 35.08 155.399 32.34 155.399 29.18C155.399 26.02 156.039 23.3 157.319 21.02C158.599 18.74 160.419 17 162.779 15.8C165.179 14.56 167.979 13.94 171.179 13.94C173.059 13.94 174.959 14.22 176.879 14.78C178.799 15.34 180.359 16.14 181.559 17.18L179.039 23.42C178.039 22.62 176.919 22 175.679 21.56C174.439 21.08 173.239 20.84 172.079 20.84C169.719 20.84 167.879 21.58 166.559 23.06C165.279 24.5 164.639 26.56 164.639 29.24C164.639 31.88 165.279 33.96 166.559 35.48C167.879 36.96 169.719 37.7 172.079 37.7C173.199 37.7 174.379 37.48 175.619 37.04C176.899 36.6 178.039 35.96 179.039 35.12L181.559 41.36C180.359 42.4 178.799 43.22 176.879 43.82C174.959 44.38 173.059 44.66 171.179 44.66ZM200.128 44.66C191.848 44.66 187.708 40.64 187.708 32.6V21.32H182.127V14.54H187.708V5.9H196.768V14.54H205.468V21.32H196.768V32.24C196.768 33.92 197.148 35.18 197.908 36.02C198.708 36.86 199.968 37.28 201.688 37.28C202.208 37.28 202.748 37.22 203.308 37.1C203.908 36.98 204.548 36.82 205.228 36.62L206.548 43.22C205.708 43.66 204.708 44 203.548 44.24C202.388 44.52 201.248 44.66 200.128 44.66ZM209.565 8.84V0.379997H219.345V8.84H209.565ZM209.925 44V14.54H218.985V44H209.925ZM240.14 44.66C236.98 44.66 234.22 44.04 231.86 42.8C229.54 41.52 227.74 39.74 226.46 37.46C225.18 35.14 224.54 32.4 224.54 29.24C224.54 26.12 225.18 23.42 226.46 21.14C227.74 18.82 229.54 17.04 231.86 15.8C234.22 14.56 236.98 13.94 240.14 13.94C243.3 13.94 246.04 14.56 248.36 15.8C250.72 17.04 252.54 18.82 253.82 21.14C255.14 23.42 255.8 26.12 255.8 29.24C255.8 32.4 255.14 35.14 253.82 37.46C252.54 39.74 250.72 41.52 248.36 42.8C246.04 44.04 243.3 44.66 240.14 44.66ZM240.14 37.88C242.06 37.88 243.62 37.18 244.82 35.78C246.06 34.38 246.68 32.2 246.68 29.24C246.68 26.32 246.06 24.18 244.82 22.82C243.62 21.42 242.06 20.72 240.14 20.72C238.22 20.72 236.66 21.42 235.46 22.82C234.26 24.18 233.66 26.32 233.66 29.24C233.66 32.2 234.26 34.38 235.46 35.78C236.66 37.18 238.22 37.88 240.14 37.88ZM261.312 44V14.54H270.192V18.86C271.192 17.26 272.532 16.04 274.212 15.2C275.892 14.36 277.772 13.94 279.852 13.94C283.332 13.94 285.932 14.96 287.652 17C289.372 19 290.232 22.1 290.232 26.3V44H281.172V26.72C281.172 24.68 280.792 23.22 280.032 22.34C279.272 21.42 278.152 20.96 276.672 20.96C274.752 20.96 273.212 21.56 272.052 22.76C270.932 23.96 270.372 25.56 270.372 27.56V44H261.312Z" fill="white"/>
<path d="M311.456 44.66C303.176 44.66 299.036 40.64 299.036 32.6V21.32H293.456V14.54H299.036V5.9H308.096V14.54H316.796V21.32H308.096V32.24C308.096 33.92 308.476 35.18 309.236 36.02C310.036 36.86 311.296 37.28 313.016 37.28C313.536 37.28 314.076 37.22 314.636 37.1C315.236 36.98 315.876 36.82 316.556 36.62L317.876 43.22C317.036 43.66 316.036 44 314.876 44.24C313.716 44.52 312.576 44.66 311.456 44.66ZM336.26 44.66C332.78 44.66 329.78 44.04 327.26 42.8C324.78 41.52 322.86 39.74 321.5 37.46C320.18 35.14 319.52 32.42 319.52 29.3C319.52 26.26 320.16 23.6 321.44 21.32C322.76 19 324.54 17.2 326.78 15.92C329.06 14.6 331.68 13.94 334.64 13.94C338.92 13.94 342.32 15.3 344.84 18.02C347.36 20.7 348.62 24.34 348.62 28.94V31.22H328.16C328.48 33.54 329.32 35.24 330.68 36.32C332.08 37.36 334 37.88 336.44 37.88C338.04 37.88 339.66 37.64 341.3 37.16C342.94 36.68 344.42 35.94 345.74 34.94L348.14 41C346.66 42.12 344.84 43.02 342.68 43.7C340.56 44.34 338.42 44.66 336.26 44.66ZM335 19.94C333.08 19.94 331.52 20.52 330.32 21.68C329.16 22.84 328.44 24.46 328.16 26.54H341.12C340.88 22.14 338.84 19.94 335 19.94ZM353.89 44V1.7H362.95V26.72H363.07L373.93 14.54H384.67L372.19 28.64L385.27 44H374.35L363.07 31.28H362.95V44H353.89ZM397.014 44.66C394.814 44.66 392.874 44.24 391.194 43.4C389.514 42.56 388.174 41.42 387.174 39.98C386.214 38.54 385.734 36.92 385.734 35.12C385.734 33 386.294 31.3 387.414 30.02C388.534 28.74 390.354 27.84 392.874 27.32C395.394 26.76 398.734 26.48 402.894 26.48H405.054V25.46C405.054 23.7 404.654 22.46 403.854 21.74C403.054 20.98 401.694 20.6 399.774 20.6C398.174 20.6 396.474 20.86 394.674 21.38C392.914 21.86 391.154 22.6 389.394 23.6L386.934 17.54C387.974 16.86 389.234 16.24 390.714 15.68C392.234 15.12 393.814 14.7 395.454 14.42C397.094 14.1 398.654 13.94 400.134 13.94C404.694 13.94 408.094 14.98 410.334 17.06C412.574 19.1 413.694 22.28 413.694 26.6V44H405.234V39.56C404.634 41.12 403.614 42.36 402.174 43.28C400.774 44.2 399.054 44.66 397.014 44.66ZM399.054 38.6C400.734 38.6 402.154 38.02 403.314 36.86C404.474 35.7 405.054 34.2 405.054 32.36V31.16H402.954C399.874 31.16 397.694 31.44 396.414 32C395.134 32.52 394.494 33.44 394.494 34.76C394.494 35.88 394.874 36.8 395.634 37.52C396.434 38.24 397.574 38.6 399.054 38.6Z" fill="#3949AB"/>
</g>
<defs>
<filter id="filter0_di_702_64" x="0.399902" y="0.379883" width="417.294" height="52.2802" filterUnits="userSpaceOnUse" color-interpolation-filters="sRGB">
<feFlood flood-opacity="0" result="BackgroundImageFix"/>
<feColorMatrix in="SourceAlpha" type="matrix" values="0 0 0 0 0 0 0 0 0 0 0 0 0 0 0 0 0 0 127 0" result="hardAlpha"/>
<feOffset dy="4"/>
<feGaussianBlur stdDeviation="2"/>
<feComposite in2="hardAlpha" operator="out"/>
<feColorMatrix type="matrix" values="0 0 0 0 0 0 0 0 0 0 0 0 0 0 0 0 0 0 0.25 0"/>
<feBlend mode="normal" in2="BackgroundImageFix" result="effect1_dropShadow_702_64"/>
<feBlend mode="normal" in="SourceGraphic" in2="effect1_dropShadow_702_64" result="shape"/>
<feColorMatrix in="SourceAlpha" type="matrix" values="0 0 0 0 0 0 0 0 0 0 0 0 0 0 0 0 0 0 127 0" result="hardAlpha"/>
<feOffset dy="4"/>
<feGaussianBlur stdDeviation="2"/>
<feComposite in2="hardAlpha" operator="arithmetic" k2="-1" k3="1"/>
<feColorMatrix type="matrix" values="0 0 0 0 0 0 0 0 0 0 0 0 0 0 0 0 0 0 0.25 0"/>
<feBlend mode="normal" in2="shape" result="effect2_innerShadow_702_64"/>
</filter>
</defs>
</svg>
