<svg width="50" height="50" viewBox="0 0 50 50" fill="black" xmlns="http://www.w3.org/2000/svg">
<path d="M49.502 4.91675C49.821 5.23667 50 5.66997 50 6.1217C50 6.57343 49.821 7.00674 49.502 7.32666L45.9418 10.8903L39.1148 4.06338L42.6751 0.49971C42.9952 0.179746 43.4292 0 43.8818 0C44.3343 0 44.7684 0.179746 45.0884 0.49971L49.502 4.91333V4.91675ZM43.5285 13.3002L36.7015 6.47329L13.4455 29.7327C13.2576 29.9205 13.1162 30.1496 13.0325 30.4018L10.2846 38.6419C10.2348 38.7921 10.2277 38.9532 10.2642 39.1072C10.3007 39.2613 10.3792 39.4021 10.4912 39.514C10.6031 39.6259 10.7439 39.7045 10.8979 39.741C11.0519 39.7775 11.2131 39.7704 11.3633 39.7205L19.6034 36.9727C19.8552 36.89 20.0843 36.7497 20.2724 36.5631L43.5285 13.3037V13.3002Z" />
<path fill-rule="evenodd" clip-rule="evenodd" d="M0 44.3762C0 45.7342 0.53945 47.0365 1.49968 47.9968C2.4599 48.957 3.76225 49.4964 5.12021 49.4964H42.6685C44.0264 49.4964 45.3288 48.957 46.289 47.9968C47.2492 47.0365 47.7887 45.7342 47.7887 44.3762V23.8954C47.7887 23.4427 47.6089 23.0086 47.2888 22.6885C46.9687 22.3684 46.5346 22.1886 46.0819 22.1886C45.6293 22.1886 45.1952 22.3684 44.8751 22.6885C44.555 23.0086 44.3752 23.4427 44.3752 23.8954V44.3762C44.3752 44.8289 44.1954 45.263 43.8753 45.5831C43.5552 45.9031 43.1211 46.083 42.6685 46.083H5.12021C4.66756 46.083 4.23344 45.9031 3.91337 45.5831C3.59329 45.263 3.41348 44.8289 3.41348 44.3762V6.82798C3.41348 6.37532 3.59329 5.94121 3.91337 5.62113C4.23344 5.30106 4.66756 5.12124 5.12021 5.12124H27.3078C27.7605 5.12124 28.1946 4.94142 28.5147 4.62135C28.8347 4.30127 29.0145 3.86716 29.0145 3.4145C29.0145 2.96185 28.8347 2.52773 28.5147 2.20766C28.1946 1.88758 27.7605 1.70776 27.3078 1.70776H5.12021C3.76225 1.70776 2.4599 2.24721 1.49968 3.20744C0.53945 4.16767 0 5.47001 0 6.82798V44.3762Z" />
</svg>
