<svg width="250" height="179" viewBox="0 0 250 179" fill="none" xmlns="http://www.w3.org/2000/svg">
<path opacity="0.2" d="M245.283 96.305C245.283 145.585 173.887 178.459 124.607 178.459C75.3266 178.459 4.7168 145.585 4.7168 96.305C4.7168 47.0249 75.3266 0 124.607 0C173.887 0 245.283 47.0249 245.283 96.305Z" fill="#3949AB"/>
<path opacity="0.3" d="M250 44.4183C250 84.5805 158.48 161.164 118.318 161.164C78.1554 161.164 0 84.5805 0 44.4183C0 4.25605 78.1554 15.7233 118.318 15.7233C158.48 15.7233 250 4.25605 250 44.4183Z" fill="#3949AB"/>
<circle opacity="0.7" cx="124.606" cy="82.1541" r="58.5692" fill="#3949AB"/>
<path d="M125.393 92.2807C123.177 92.2807 121.364 90.495 121.364 88.3124C121.364 86.1299 123.177 84.3442 125.393 84.3442C127.609 84.3442 129.423 86.1299 129.423 88.3124C129.423 90.495 127.609 92.2807 125.393 92.2807ZM113.306 74.4236H115.321V70.4553C115.321 64.9791 119.833 60.5347 125.393 60.5347C130.954 60.5347 135.466 64.9791 135.466 70.4553H131.638C131.638 67.0624 128.838 64.3045 125.393 64.3045C121.949 64.3045 119.148 67.0624 119.148 70.4553V74.4236H137.481C139.697 74.4236 141.51 76.2093 141.51 78.3918V98.2331C141.51 100.416 139.697 102.201 137.481 102.201H113.306C111.09 102.201 109.277 100.416 109.277 98.2331V78.3918C109.277 76.2093 111.09 74.4236 113.306 74.4236ZM113.306 98.2331H137.481V78.3918H113.306V98.2331Z" fill="white"/>
</svg>
