<svg version="1.1" xmlns="http://www.w3.org/2000/svg" viewBox="-1923.0123726044233 -4884.015746137465 9124.745010275292 9124.95944014604"><desc>Created with Snap</desc><defs></defs><g><g transform="matrix(21.4221,0,0,21.4221,-1645.0533,-4605.9494)">
<g id="gSkv48b64m1t2">
	<g>
		<path d="M361.85498,132.95007l-21.40002-73.41016l-73.41003-21.3999l-66.54004-36.5l-0.5-0.28003l-67.04993,36.78003
			l-73.41003,21.3999l-21.3999,73.41016L1.63501,199.49011l-0.27002,0.51001l36.78003,67.03979l21.3999,73.42017l73.41003,21.3999
			l66.53992,36.5l0.51001,0.28003l67.04004-36.78003l73.41003-21.3999l21.40002-73.42017l36.51001-66.53979l0.27002-0.5
			L361.85498,132.95007z M367.20496,147.07019l17.91003,32.65991l-4.81006,16.51001l-13.71997-47.05005L367.20496,147.07019z
			 M43.21484,217.17004l-8.70996,29.88013l-13.70996-47.05005l13.70996-47.05005l8.70996,29.87988l-9.13989,16.66016
			l-0.28003,0.51001L43.21484,217.17004z M36.19495,200.00012l7.85999-14.31006l4.16992,14.31006l-4.17993,14.30981
			L36.19495,200.00012z M309.20496,96.10999l12.0199,6.59009l9.53003,32.67993L309.20496,96.10999z M307.32495,92.67004
			l-7.17004-13.06006l15.67004,4.56006l4.57007,15.67017L307.32495,92.67004z M317.5249,82.4801l-18.80005-5.47998
			l-14.96997-27.29004l42.95996,23.57007l23.58008,42.96997l-27.29004-14.97998L317.5249,82.4801z M303.88501,90.78992
			L264.625,69.25012l32.66992,9.52002L303.88501,90.78992z M203.76489,49.30994l13.16003-3.82983l29.83997,16.36987
			L203.76489,49.30994z M200.00488,48.22009l-14.31995-4.16992l14.31995-7.8501l14.31006,7.8501L200.00488,48.22009z
			 M200.50488,34.07019l-0.5-0.27002l-17.16992,9.40991l-29.89001-8.70996l47.05994-13.71021l47.05005,13.71021l-29.89001,8.70996
			L200.50488,34.07019z M183.07495,45.4801l13.15991,3.82983l-43,12.54004L183.07495,45.4801z M96.11499,90.78992l6.58997-12.01978
			l32.67004-9.52002L96.11499,90.78992z M92.67493,92.67004l-13.06995,7.17017l4.56995-15.67017l15.67004-4.56006L92.67493,92.67004
			z M101.2749,77.00012L82.47485,82.4801l-5.47998,18.79004l-27.28992,14.97998l23.57996-42.96997l42.95996-23.57007
			L101.2749,77.00012z M78.7749,102.70007l12.02002-6.59009L69.25488,135.37L78.7749,102.70007z M45.48486,183.07996
			l16.37012-29.83984l-12.54004,43L45.48486,183.07996z M49.31494,203.76013l12.54004,43l-16.37012-29.84009L49.31494,203.76013z
			 M90.79492,303.89001l-12.02002-6.6001L69.24487,264.62L90.79492,303.89001z M92.67493,307.32019l7.55994,13.77979
			l-15.84985-4.56006l-4.78003-16.38989L92.67493,307.32019z M82.5249,317.68005l0.16003,0.56006l18.96997,5.45996
			l14.58997,26.58984l-42.95996-23.56982l-23.57996-42.96997l27.28992,14.96997L82.5249,317.68005z M96.11499,309.21008
			l41.02002,22.5l-34.05005-9.79004L96.11499,309.21008z M195.85498,350.78992l-12.78003,3.73022l-28.34009-15.56006
			L195.85498,350.78992z M199.63501,351.88l14.48999,4.17017l-14.12012,7.75l-14.31995-7.8501L199.63501,351.88z
			 M199.49487,365.92004l0.51001,0.28003l16.98999-9.32007l30,8.63013l-46.98999,13.69995l-47.05994-13.71997l29.89001-8.70996
			L199.49487,365.92004z M216.74487,354.60999l-13.32996-3.82983l43.34998-12.63013L216.74487,354.60999z M303.88501,309.21008
			l-6.59009,12.01001l-32.66992,9.53003L303.88501,309.21008z M307.32495,307.32019l13.07007-7.17017l-4.57007,15.67017
			l-15.67004,4.56982L307.32495,307.32019z M298.72485,323.00012l18.80005-5.47998l5.47998-18.80005l27.29004-14.96997
			l-23.58008,42.96997l-42.95996,23.56982L298.72485,323.00012z M321.22485,297.28992l-12.0199,6.6001L330.74487,264.62
			L321.22485,297.28992z M338.14502,153.24011l16.36987,29.83984l-3.82996,13.16016L338.14502,153.24011z M350.68494,203.76013
			l3.82996,13.15991l-16.36987,29.84009L350.68494,203.76013z M351.7749,200.00012l4.17004-14.31006l7.85999,14.31006
			l-7.85999,14.30981L351.7749,200.00012z M365.92493,200.50012l0.28003-0.5l-9.42004-17.17017l8.70996-29.87988l13.71008,47.05005
			l-13.71008,47.05005l-8.70996-29.88013L365.92493,200.50012z M365.7749,144.47009l-0.28003,0.94995l-0.91992-3.13013
			L365.7749,144.47009z M364.39502,149.19006l-9.04004,31.03003l-19.93005-36.32007L323.83496,104.13l28.33997,15.55005
			l7.72998,14.08008L364.39502,149.19006z M357.18494,124.43005l-1.56995-2.87012l0.86987,0.49023L357.18494,124.43005z
			 M355.65491,119.19006l-1.93005-1.06006l-23.56995-42.96997l15.07996,8.28003L355.65491,119.19006z M338.76489,61.24011
			l5.63013,19.33984l-16.13013-8.84985l-8.83997-16.13013L338.76489,61.24011z M316.56494,54.76013l8.27002,15.08008
			l-42.96997-23.57007l-1.05005-1.92993L316.56494,54.76013z M277.95496,43.51013l0.47998,0.87988l-2.87-1.56982L277.95496,43.51013
			z M280.31494,47.82019l15.55005,28.33984l-39.77002-11.58984L219.7749,44.65002l31.04004-9.05005l15.41992,4.49023
			L280.31494,47.82019z M255.53491,34.22009l2.17004,1.19995l-3.13-0.91992L255.53491,34.22009z M200.00488,3.76013
			l52.92004,29.02979l-2.10999,0.62012l-68.47998-19.95996L200.00488,3.76013z M179.72485,14.88l16.52002,4.81006
			l-53.94995,15.72998L179.72485,14.88z M122.04492,43.51013l2.39001-0.68994l-2.87,1.56982L122.04492,43.51013z
			 M133.76489,40.09021l15.42004-4.49023l31.03992,9.05005l-36.31995,19.92017l-39.7699,11.58984l15.54993-28.33984
			L133.76489,40.09021z M119.19495,44.34021l-1.05994,1.92993L75.16492,69.84021l8.27002-15.07007L119.19495,44.34021z
			 M61.23486,61.24011l19.34009-5.64014L71.73486,71.7301l-16.12988,8.84985L61.23486,61.24011z M54.76489,83.43005
			l15.08008-8.27002L46.2749,118.13l-1.92993,1.06006L54.76489,83.43005z M43.51489,122.05017l0.87012-0.47998l-1.57007,2.85986
			L43.51489,122.05017z M40.09497,133.76013l7.72998-14.08008L76.16492,104.13l-11.58997,39.77002l-19.92993,36.32007
			l-9.04004-31.03003L40.09497,133.76013z M35.42493,142.28992l-0.92004,3.14014l-0.28003-0.95996L35.42493,142.28992z
			 M32.79492,147.07996l0.62,2.11011l-13.71997,47.05005l-4.80994-16.51001L32.79492,147.07996z M3.76489,200.00012
			l9.69006-17.65991l5.14001,17.65991l-5.14001,17.65991L3.76489,200.00012z M32.79492,252.92004l-17.90991-32.6499
			l4.80994-16.51001l13.71997,47.0498L32.79492,252.92004z M34.22485,255.53015l0.28003-0.95996l0.92004,3.13989L34.22485,255.53015
			z M35.60498,250.80994l9.04004-31.02979l19.92993,36.31006l11.58997,39.76978l-28.33997-15.55005l-7.72998-14.07983
			L35.60498,250.80994z M42.81494,275.57019l1.57007,2.85986l-0.87012-0.47998L42.81494,275.57019z M44.34497,280.80994
			l1.92993,1.05005l23.57007,42.96997l-15.08008-8.27002L44.34497,280.80994z M61.23486,338.76013l-5.62988-19.34009
			l16.12988,8.8501l8.84009,16.12988L61.23486,338.76013z M83.43494,345.2301l-8.27002-15.08008l42.97009,23.57007l1.05994,1.92993
			L83.43494,345.2301z M122.04492,356.4801l-0.47998-0.87012l2.87,1.57007L122.04492,356.4801z M119.68494,352.17004
			l-15.17004-27.6499l41.02002,11.80005l34.68994,19.02979l-31.03992,9.04004l-15.42004-4.48999L119.68494,352.17004z
			 M144.46484,365.77014l-2.16992-1.19019l3.13,0.91016L144.46484,365.77014z M147.07495,367.20007l2.10999-0.60986
			l47.05994,13.70996l-16.52002,4.80981L147.07495,367.20007z M200.00488,396.24011l-17.66992-9.68994l17.66992-5.15015
			l17.66003,5.15015L200.00488,396.24011z M220.2749,385.10999l-16.51001-4.80981l47.02002-13.7002l2.13,0.61011L220.2749,385.10999
			z M255.5249,365.77014l-0.95996-0.28003l3.14001-0.91016L255.5249,365.77014z M277.95496,356.4801l-2.39001,0.69995l2.87-1.57007
			L277.95496,356.4801z M266.23486,359.90002l-15.45996,4.51001l-31.15991-8.96997l36.47998-20.02002l39.77002-11.59009
			l-15.55005,28.34009L266.23486,359.90002z M280.81494,355.65002l1.05005-1.92993l42.96997-23.57007l-8.27002,15.08008
			L280.81494,355.65002z M338.76489,338.76013l-19.33997,5.63989l8.83997-16.12988l16.13013-8.8501L338.76489,338.76013z
			 M345.23486,316.55994l-15.07996,8.27002l23.56995-42.96997l1.93005-1.05005L345.23486,316.55994z M356.48486,277.95007
			l-0.86987,0.47998l1.56995-2.85986L356.48486,277.95007z M359.90491,266.2301l-7.72998,14.07983l-28.33997,15.55005
			l11.58997-39.76978l19.93005-36.31006l9.04004,31.02979L359.90491,266.2301z M364.57495,257.71008l0.91992-3.13989
			l0.28003,0.95996L364.57495,257.71008z M367.20496,252.92004l-0.62-2.11011l13.71997-47.0498l4.81006,16.51001
			L367.20496,252.92004z M386.54492,217.66003l-5.14001-17.65991l5.14001-17.67017l9.68994,17.67017L386.54492,217.66003z" fill="#225662" style=""></path>
	</g>
</g>


<desc>Created with Snap</desc><defs></defs></g><g><g transform="matrix(1.024,0,0,-1.024,0,0)"><path d="M188 492Q274 492 321 436Q369 380 369 293Q369 155 379 106Q389 58 417 38Q434 30 434 16Q434 -10 410 -10Q386 -10 364 12Q343 35 330 68Q313 35 275 12Q238 -10 186 -10Q110 -10 62 37Q15 85 15 158Q15 232 65 284Q115 336 189 336Q264 336 314 287Q314 357 284 404Q254 452 192 452Q130 452 114 418Q123 397 123 383Q123 369 111 353Q99 337 81 337Q64 337 54 352Q44 367 44 387Q44 429 85 460Q127 492 188 492ZM70 163Q70 108 107 71Q144 34 195 34Q247 34 282 69Q317 105 317 156L317 165Q317 219 281 254Q245 289 192 289Q140 289 105 253Q70 218 70 163ZM632 65Q632 78 640 86Q648 94 661 94Q674 94 682 86Q690 79 690 66Q690 37 664 13Q639 -10 601 -10Q563 -10 538 16Q513 43 513 82L513 428L470 428Q459 428 451 436Q444 444 444 454Q444 464 451 472Q459 480 470 480L494 480Q510 480 514 484Q518 489 518 503L518 557Q518 596 558 596Q570 596 570 584L570 480L614 480Q641 480 641 453Q641 443 634 435Q627 428 614 428L570 428L570 83Q570 36 601 36Q632 36 632 65ZM893 65Q893 78 901 86Q909 94 922 94Q935 94 943 86Q951 79 951 66Q951 37 925 13Q900 -10 862 -10Q824 -10 799 16Q774 43 774 82L774 428L731 428Q720 428 712 436Q705 444 705 454Q705 464 712 472Q720 480 731 480L755 480Q771 480 775 484Q779 489 779 503L779 557Q779 596 819 596Q831 596 831 584L831 480L875 480Q902 480 902 453Q902 443 895 435Q888 428 875 428L831 428L831 83Q831 36 862 36Q893 36 893 65ZM1216 435L1084 435L1084 52L1103 52Q1115 52 1121 44Q1128 37 1128 26Q1128 0 1103 0L1008 0Q982 0 982 26Q982 52 1008 52L1028 52L1028 428L1008 428Q995 428 988 436Q981 444 981 454Q981 465 988 472Q995 480 1008 480L1193 480Q1244 480 1270 458Q1296 437 1296 404Q1296 387 1288 373Q1280 360 1262 360Q1244 360 1229 376Q1215 393 1214 411Q1214 430 1216 435ZM1489 492Q1575 492 1622 436Q1670 380 1670 293Q1670 155 1680 106Q1690 58 1718 38Q1735 30 1735 16Q1735 -10 1711 -10Q1687 -10 1665 12Q1644 35 1631 68Q1614 35 1576 12Q1539 -10 1487 -10Q1411 -10 1363 37Q1316 85 1316 158Q1316 232 1366 284Q1416 336 1490 336Q1565 336 1615 287Q1615 357 1585 404Q1555 452 1493 452Q1431 452 1415 418Q1424 397 1424 383Q1424 369 1412 353Q1400 337 1382 337Q1365 337 1355 352Q1345 367 1345 387Q1345 429 1386 460Q1428 492 1489 492ZM1371 163Q1371 108 1408 71Q1445 34 1496 34Q1548 34 1583 69Q1618 105 1618 156L1618 165Q1618 219 1582 254Q1546 289 1493 289Q1441 289 1406 253Q1371 218 1371 163ZM2081 137Q2099 137 2107 128Q2115 120 2115 110Q2115 75 2070 32Q2026 -10 1955 -10Q1865 -10 1810 61Q1755 133 1755 241Q1755 349 1808 419Q1861 490 1943 490Q1988 490 2022 468Q2056 447 2056 412Q2056 394 2046 382Q2037 370 2019 370Q2001 370 1987 390Q1973 411 1972 438Q1956 445 1944 445Q1889 445 1850 388Q1811 332 1811 242Q1811 153 1852 94Q1894 36 1955 36Q2016 36 2052 113Q2063 137 2081 137ZM2313 65Q2313 78 2321 86Q2329 94 2342 94Q2355 94 2363 86Q2371 79 2371 66Q2371 37 2345 13Q2320 -10 2282 -10Q2244 -10 2219 16Q2194 43 2194 82L2194 428L2151 428Q2140 428 2132 436Q2125 444 2125 454Q2125 464 2132 472Q2140 480 2151 480L2175 480Q2191 480 2195 484Q2199 489 2199 503L2199 557Q2199 596 2239 596Q2251 596 2251 584L2251 480L2295 480Q2322 480 2322 453Q2322 443 2315 435Q2308 428 2295 428L2251 428L2251 83Q2251 36 2282 36Q2313 36 2313 65ZM2456 53L2456 429L2430 429Q2418 429 2411 436Q2404 444 2404 454Q2404 480 2430 480L2480 480Q2511 480 2512 453L2512 52L2537 52Q2549 52 2555 44Q2562 36 2562 26Q2562 0 2537 0L2431 0Q2421 0 2413 7Q2406 15 2406 25Q2406 35 2413 43Q2421 52 2431 52L2456 53ZM2471 635Q2491 635 2504 622Q2518 609 2518 590Q2518 572 2504 559Q2491 546 2471 546Q2452 546 2438 559Q2425 572 2425 590Q2425 609 2438 622Q2451 635 2471 635ZM2605 241Q2605 349 2666 418Q2728 488 2832 488Q2937 488 2998 419Q3060 350 3060 242Q3060 135 2999 64Q2938 -6 2831 -6Q2725 -6 2665 64Q2605 134 2605 241ZM2710 99Q2759 41 2832 41Q2905 41 2954 98Q3004 156 3004 241Q3004 326 2954 383Q2904 441 2832 441Q2760 441 2710 384Q2661 327 2661 242Q2661 157 2710 99ZM3220 255L3220 52L3249 52Q3260 52 3267 44Q3274 36 3274 26Q3274 16 3267 8Q3260 0 3249 0L3132 0Q3121 0 3114 7Q3108 15 3108 25Q3108 36 3114 44Q3121 52 3132 52L3164 52L3164 428L3123 428Q3112 428 3106 435Q3100 443 3100 455Q3100 467 3107 473Q3115 480 3123 480L3200 480Q3211 480 3215 476Q3219 472 3219 461L3219 386Q3246 431 3288 459Q3330 487 3376 487Q3452 487 3484 441Q3516 396 3516 329L3516 52L3544 52Q3555 52 3562 44Q3569 36 3569 26Q3569 16 3562 8Q3555 0 3544 0L3436 0Q3412 0 3412 26Q3412 52 3436 52L3460 52L3460 334Q3460 440 3375 440Q3318 440 3269 387Q3220 334 3220 255ZM3792 65Q3792 78 3800 86Q3808 94 3821 94Q3834 94 3842 86Q3850 79 3850 66Q3850 37 3824 13Q3799 -10 3761 -10Q3723 -10 3698 16Q3673 43 3673 82L3673 428L3630 428Q3619 428 3611 436Q3604 444 3604 454Q3604 464 3611 472Q3619 480 3630 480L3654 480Q3670 480 3674 484Q3678 489 3678 503L3678 557Q3678 596 3718 596Q3730 596 3730 584L3730 480L3774 480Q3801 480 3801 453Q3801 443 3794 435Q3787 428 3774 428L3730 428L3730 83Q3730 36 3761 36Q3792 36 3792 65ZM4181 332Q4177 372 4145 409Q4113 446 4065 446Q4018 446 3987 411Q3956 376 3944 332L4181 332ZM4076 -10Q3985 -10 3930 61Q3875 132 3875 242Q3875 352 3927 421Q3980 490 4066 490Q4110 490 4145 470Q4180 451 4199 422Q4239 363 4239 310Q4239 282 4213 282L3933 282Q3931 269 3931 245Q3931 153 3972 94Q4014 35 4076 35Q4103 35 4125 49Q4147 64 4156 77Q4165 91 4176 114Q4188 137 4208 137Q4238 137 4238 110Q4238 75 4193 32Q4149 -10 4076 -10ZM4311 52L4311 586L4290 586Q4267 586 4267 612Q4267 638 4290 638L4393 638Q4416 638 4416 612Q4416 586 4393 586L4367 586L4367 309L4520 429L4499 429Q4490 429 4483 436Q4477 444 4477 454Q4477 465 4483 472Q4489 479 4499 479L4618 479Q4639 479 4639 454Q4639 429 4618 429L4588 429L4486 347L4651 52L4680 52Q4701 52 4701 26Q4701 0 4680 0L4566 0Q4541 0 4541 26Q4541 52 4566 52L4588 52L4443 313L4367 256L4367 52L4387 52Q4409 52 4409 26Q4409 0 4387 0L4285 0Q4264 0 4264 26Q4264 52 4285 52L4311 52ZM4894 492Q4980 492 5027 436Q5075 380 5075 293Q5075 155 5085 106Q5095 58 5123 38Q5140 30 5140 16Q5140 -10 5116 -10Q5092 -10 5070 12Q5049 35 5036 68Q5019 35 4981 12Q4944 -10 4892 -10Q4816 -10 4768 37Q4721 85 4721 158Q4721 232 4771 284Q4821 336 4895 336Q4970 336 5020 287Q5020 357 4990 404Q4960 452 4898 452Q4836 452 4820 418Q4829 397 4829 383Q4829 369 4817 353Q4805 337 4787 337Q4770 337 4760 352Q4750 367 4750 387Q4750 429 4791 460Q4833 492 4894 492ZM4776 163Q4776 108 4813 71Q4850 34 4901 34Q4953 34 4988 69Q5023 105 5023 156L5023 165Q5023 219 4987 254Q4951 289 4898 289Q4846 289 4811 253Q4776 218 4776 163Z" fill="#f9d1c8" style=""></path></g></g></g></svg>