<svg width="19" height="18" viewBox="0 0 19 18" fill="#3949AB" xmlns="http://www.w3.org/2000/svg">
<path d="M17.2489 6.99738C17.1978 6.83335 17.0635 6.71619 16.9005 6.68941L12.0422 5.96632L9.85592 1.36337C9.7824 1.20939 9.63218 1.1123 9.46917 1.1123C9.30615 1.1123 9.15593 1.20939 9.08241 1.36672L6.92492 5.98306L2.06656 6.73962C1.90355 6.7664 1.76931 6.88357 1.71817 7.0476C1.66703 7.21163 1.71177 7.3924 1.83004 7.50957L5.35554 11.0882L4.54049 16.1564C4.51172 16.3271 4.57885 16.4979 4.71309 16.5983C4.7866 16.6552 4.8761 16.6853 4.9656 16.6853C5.03591 16.6853 5.10304 16.6686 5.16696 16.6318L9.50432 14.2249L13.8545 16.605C13.9184 16.6385 13.9855 16.6552 14.0526 16.6552C14.2892 16.6552 14.4841 16.451 14.4841 16.2033C14.4841 16.1665 14.4809 16.133 14.4714 16.0995L13.6307 11.0614L17.1339 7.4627C17.2585 7.34219 17.3001 7.16142 17.2489 6.99738ZM12.87 10.5827C12.7677 10.6864 12.723 10.8371 12.7486 10.9844L13.4805 15.3798L9.70249 13.3143C9.57784 13.244 9.42761 13.2474 9.29976 13.3143L5.53454 15.4032L6.24091 11.0011C6.26329 10.8538 6.21854 10.7065 6.11626 10.6027L3.06061 7.49618L7.27651 6.84005C7.41715 6.81661 7.53861 6.72623 7.59934 6.59233L9.47236 2.58525L11.371 6.58228C11.4349 6.71619 11.5563 6.80657 11.697 6.83001L15.9161 7.45935L12.87 10.5827Z"/>
<path d="M12.87 10.5827C12.7677 10.6864 12.723 10.8371 12.7486 10.9844L13.4805 15.3798L9.70249 13.3143C9.57784 13.244 9.42761 13.2474 9.29976 13.3143L5.53454 15.4032L6.24091 11.0011C6.26329 10.8538 6.21854 10.7065 6.11626 10.6027L3.06061 7.49618L7.27651 6.84005C7.41715 6.81661 7.53861 6.72623 7.59934 6.59233L9.47236 2.58525L11.371 6.58228C11.4349 6.71619 11.5563 6.80657 11.697 6.83001L15.9161 7.45935L12.87 10.5827Z" fill="#3949AB"/>
</svg>
