<svg width="18" height="16" viewBox="0 0 18 16" fill="none" xmlns="http://www.w3.org/2000/svg">
<path d="M5.80051 4.92681L8.12087 0.311459C8.16543 0.218612 8.23506 0.140192 8.32184 0.0851281C8.40862 0.0300642 8.50906 0.000568819 8.61171 0C8.80614 0 9.00056 0.103464 9.10574 0.311459L11.4261 4.92681L16.6299 5.66919C16.7596 5.68966 16.8783 5.75442 16.966 5.85255C17.0537 5.95068 17.105 6.07617 17.1112 6.20784C17.1186 6.2955 17.1062 6.38372 17.0749 6.4659C17.0437 6.54809 16.9943 6.62213 16.9306 6.6825L13.1876 10.2621L14.0694 15.3073C14.1523 15.7799 13.687 16.15 13.2769 15.9388L8.61171 13.5325L3.94868 15.9388C3.89991 15.9642 3.84763 15.9822 3.79357 15.9921C3.43022 16.0561 3.08386 15.7212 3.15611 15.3073L4.03793 10.2621L0.296032 6.6825C0.237859 6.62724 0.191619 6.56057 0.160184 6.48663C0.128748 6.41268 0.112788 6.33304 0.113293 6.25264C0.113348 6.13898 0.144594 6.02752 0.2036 5.93052C0.245458 5.86019 0.302511 5.8002 0.370549 5.75497C0.438586 5.70974 0.515871 5.68043 0.596701 5.66919L5.80051 4.92681ZM8.61171 12.2952C8.69747 12.2948 8.78204 12.3153 8.8582 12.3549L12.7743 14.3751L12.037 10.1544C12.0196 10.0573 12.0262 9.95746 12.0562 9.86355C12.0862 9.76963 12.1387 9.68454 12.2091 9.61576L15.2976 6.66116L10.9926 6.04678C10.9035 6.03326 10.8189 5.99826 10.7462 5.94476C10.6735 5.89126 10.6148 5.82086 10.5751 5.73959L8.61277 1.83782L8.61171 1.84102V12.2941V12.2952Z" fill="#3949AB"/>
</svg>
