<svg width="15" height="12" viewBox="0 0 15 12" fill="#656FAB" xmlns="http://www.w3.org/2000/svg">
<path d="M15 2.95138V9.1875C15 9.76766 14.7531 10.3241 14.3135 10.7343C13.874 11.1445 13.2779 11.375 12.6562 11.375H2.34375C1.72215 11.375 1.12601 11.1445 0.686468 10.7343C0.24693 10.3241 0 9.76766 0 9.1875V2.95138L7.26188 6.93962C7.33402 6.97934 7.41624 7.00028 7.5 7.00028C7.58376 7.00028 7.66598 6.97934 7.73812 6.93962L15 2.95138ZM12.6562 2.70836e-08C13.2329 -8.46265e-05 13.7894 0.198281 14.2193 0.557147C14.6491 0.916014 14.922 1.41019 14.9859 1.94513L7.5 6.055L0.0140626 1.94513C0.0779609 1.41019 0.350929 0.916014 0.780745 0.557147C1.21056 0.198281 1.76705 -8.46265e-05 2.34375 2.70836e-08H12.6562Z" />
</svg>
