<svg width="418" height="82" viewBox="0 0 418 82" fill="none" xmlns="http://www.w3.org/2000/svg">
<g filter="url(#filter0_di_20:102)">
<path d="M4.4 61L23.84 18.7H31.34L50.78 61H41.42L37.46 51.82H17.72L13.82 61H4.4ZM27.5 28.6L20.84 44.56H34.4L27.62 28.6H27.5ZM67.1197 61.66C58.8397 61.66 54.6997 57.64 54.6997 49.6V38.32H49.1197V31.54H54.6997V22.9H63.7597V31.54H72.4597V38.32H63.7597V49.24C63.7597 50.92 64.1397 52.18 64.8997 53.02C65.6997 53.86 66.9597 54.28 68.6797 54.28C69.1997 54.28 69.7397 54.22 70.2997 54.1C70.8997 53.98 71.5397 53.82 72.2197 53.62L73.5397 60.22C72.6997 60.66 71.6997 61 70.5397 61.24C69.3797 61.52 68.2397 61.66 67.1197 61.66ZM89.2095 61.66C80.9295 61.66 76.7895 57.64 76.7895 49.6V38.32H71.2095V31.54H76.7895V22.9H85.8495V31.54H94.5495V38.32H85.8495V49.24C85.8495 50.92 86.2295 52.18 86.9895 53.02C87.7895 53.86 89.0495 54.28 90.7695 54.28C91.2895 54.28 91.8295 54.22 92.3895 54.1C92.9895 53.98 93.6295 53.82 94.3095 53.62L95.6295 60.22C94.7895 60.66 93.7895 61 92.6295 61.24C91.4695 61.52 90.3295 61.66 89.2095 61.66ZM99.0073 61V31.54H107.887V36.64C109.287 33.2 112.287 31.3 116.887 30.94L119.527 30.76L120.067 38.38L114.967 38.92C110.487 39.36 108.247 41.64 108.247 45.76V61H99.0073ZM133.401 61.66C131.201 61.66 129.261 61.24 127.581 60.4C125.901 59.56 124.561 58.42 123.561 56.98C122.601 55.54 122.121 53.92 122.121 52.12C122.121 50 122.681 48.3 123.801 47.02C124.921 45.74 126.741 44.84 129.261 44.32C131.781 43.76 135.121 43.48 139.281 43.48H141.441V42.46C141.441 40.7 141.041 39.46 140.241 38.74C139.441 37.98 138.081 37.6 136.161 37.6C134.561 37.6 132.861 37.86 131.061 38.38C129.301 38.86 127.541 39.6 125.781 40.6L123.321 34.54C124.361 33.86 125.621 33.24 127.101 32.68C128.621 32.12 130.201 31.7 131.841 31.42C133.481 31.1 135.041 30.94 136.521 30.94C141.081 30.94 144.481 31.98 146.721 34.06C148.961 36.1 150.081 39.28 150.081 43.6V61H141.621V56.56C141.021 58.12 140.001 59.36 138.561 60.28C137.161 61.2 135.441 61.66 133.401 61.66ZM135.441 55.6C137.121 55.6 138.541 55.02 139.701 53.86C140.861 52.7 141.441 51.2 141.441 49.36V48.16H139.341C136.261 48.16 134.081 48.44 132.801 49C131.521 49.52 130.881 50.44 130.881 51.76C130.881 52.88 131.261 53.8 132.021 54.52C132.821 55.24 133.961 55.6 135.441 55.6ZM171.179 61.66C167.979 61.66 165.179 61.04 162.779 59.8C160.419 58.52 158.599 56.72 157.319 54.4C156.039 52.08 155.399 49.34 155.399 46.18C155.399 43.02 156.039 40.3 157.319 38.02C158.599 35.74 160.419 34 162.779 32.8C165.179 31.56 167.979 30.94 171.179 30.94C173.059 30.94 174.959 31.22 176.879 31.78C178.799 32.34 180.359 33.14 181.559 34.18L179.039 40.42C178.039 39.62 176.919 39 175.679 38.56C174.439 38.08 173.239 37.84 172.079 37.84C169.719 37.84 167.879 38.58 166.559 40.06C165.279 41.5 164.639 43.56 164.639 46.24C164.639 48.88 165.279 50.96 166.559 52.48C167.879 53.96 169.719 54.7 172.079 54.7C173.199 54.7 174.379 54.48 175.619 54.04C176.899 53.6 178.039 52.96 179.039 52.12L181.559 58.36C180.359 59.4 178.799 60.22 176.879 60.82C174.959 61.38 173.059 61.66 171.179 61.66ZM200.128 61.66C191.848 61.66 187.708 57.64 187.708 49.6V38.32H182.127V31.54H187.708V22.9H196.768V31.54H205.468V38.32H196.768V49.24C196.768 50.92 197.148 52.18 197.908 53.02C198.708 53.86 199.968 54.28 201.688 54.28C202.208 54.28 202.748 54.22 203.308 54.1C203.908 53.98 204.548 53.82 205.228 53.62L206.548 60.22C205.708 60.66 204.708 61 203.548 61.24C202.388 61.52 201.248 61.66 200.128 61.66ZM209.565 25.84V17.38H219.345V25.84H209.565ZM209.925 61V31.54H218.985V61H209.925ZM240.14 61.66C236.98 61.66 234.22 61.04 231.86 59.8C229.54 58.52 227.74 56.74 226.46 54.46C225.18 52.14 224.54 49.4 224.54 46.24C224.54 43.12 225.18 40.42 226.46 38.14C227.74 35.82 229.54 34.04 231.86 32.8C234.22 31.56 236.98 30.94 240.14 30.94C243.3 30.94 246.04 31.56 248.36 32.8C250.72 34.04 252.54 35.82 253.82 38.14C255.14 40.42 255.8 43.12 255.8 46.24C255.8 49.4 255.14 52.14 253.82 54.46C252.54 56.74 250.72 58.52 248.36 59.8C246.04 61.04 243.3 61.66 240.14 61.66ZM240.14 54.88C242.06 54.88 243.62 54.18 244.82 52.78C246.06 51.38 246.68 49.2 246.68 46.24C246.68 43.32 246.06 41.18 244.82 39.82C243.62 38.42 242.06 37.72 240.14 37.72C238.22 37.72 236.66 38.42 235.46 39.82C234.26 41.18 233.66 43.32 233.66 46.24C233.66 49.2 234.26 51.38 235.46 52.78C236.66 54.18 238.22 54.88 240.14 54.88ZM261.312 61V31.54H270.192V35.86C271.192 34.26 272.532 33.04 274.212 32.2C275.892 31.36 277.772 30.94 279.852 30.94C283.332 30.94 285.932 31.96 287.652 34C289.372 36 290.232 39.1 290.232 43.3V61H281.172V43.72C281.172 41.68 280.792 40.22 280.032 39.34C279.272 38.42 278.152 37.96 276.672 37.96C274.752 37.96 273.212 38.56 272.052 39.76C270.932 40.96 270.372 42.56 270.372 44.56V61H261.312Z" fill="white"/>
<path d="M311.456 61.66C303.176 61.66 299.036 57.64 299.036 49.6V38.32H293.456V31.54H299.036V22.9H308.096V31.54H316.796V38.32H308.096V49.24C308.096 50.92 308.476 52.18 309.236 53.02C310.036 53.86 311.296 54.28 313.016 54.28C313.536 54.28 314.076 54.22 314.636 54.1C315.236 53.98 315.876 53.82 316.556 53.62L317.876 60.22C317.036 60.66 316.036 61 314.876 61.24C313.716 61.52 312.576 61.66 311.456 61.66ZM336.26 61.66C332.78 61.66 329.78 61.04 327.26 59.8C324.78 58.52 322.86 56.74 321.5 54.46C320.18 52.14 319.52 49.42 319.52 46.3C319.52 43.26 320.16 40.6 321.44 38.32C322.76 36 324.54 34.2 326.78 32.92C329.06 31.6 331.68 30.94 334.64 30.94C338.92 30.94 342.32 32.3 344.84 35.02C347.36 37.7 348.62 41.34 348.62 45.94V48.22H328.16C328.48 50.54 329.32 52.24 330.68 53.32C332.08 54.36 334 54.88 336.44 54.88C338.04 54.88 339.66 54.64 341.3 54.16C342.94 53.68 344.42 52.94 345.74 51.94L348.14 58C346.66 59.12 344.84 60.02 342.68 60.7C340.56 61.34 338.42 61.66 336.26 61.66ZM335 36.94C333.08 36.94 331.52 37.52 330.32 38.68C329.16 39.84 328.44 41.46 328.16 43.54H341.12C340.88 39.14 338.84 36.94 335 36.94ZM353.89 61V18.7H362.95V43.72H363.07L373.93 31.54H384.67L372.19 45.64L385.27 61H374.35L363.07 48.28H362.95V61H353.89ZM397.014 61.66C394.814 61.66 392.874 61.24 391.194 60.4C389.514 59.56 388.174 58.42 387.174 56.98C386.214 55.54 385.734 53.92 385.734 52.12C385.734 50 386.294 48.3 387.414 47.02C388.534 45.74 390.354 44.84 392.874 44.32C395.394 43.76 398.734 43.48 402.894 43.48H405.054V42.46C405.054 40.7 404.654 39.46 403.854 38.74C403.054 37.98 401.694 37.6 399.774 37.6C398.174 37.6 396.474 37.86 394.674 38.38C392.914 38.86 391.154 39.6 389.394 40.6L386.934 34.54C387.974 33.86 389.234 33.24 390.714 32.68C392.234 32.12 393.814 31.7 395.454 31.42C397.094 31.1 398.654 30.94 400.134 30.94C404.694 30.94 408.094 31.98 410.334 34.06C412.574 36.1 413.694 39.28 413.694 43.6V61H405.234V56.56C404.634 58.12 403.614 59.36 402.174 60.28C400.774 61.2 399.054 61.66 397.014 61.66ZM399.054 55.6C400.734 55.6 402.154 55.02 403.314 53.86C404.474 52.7 405.054 51.2 405.054 49.36V48.16H402.954C399.874 48.16 397.694 48.44 396.414 49C395.134 49.52 394.494 50.44 394.494 51.76C394.494 52.88 394.874 53.8 395.634 54.52C396.434 55.24 397.574 55.6 399.054 55.6Z" fill="#3949AB"/>
</g>
<defs>
<filter id="filter0_di_20:102" x="0.399902" y="17.38" width="417.294" height="52.28" filterUnits="userSpaceOnUse" color-interpolation-filters="sRGB">
<feFlood flood-opacity="0" result="BackgroundImageFix"/>
<feColorMatrix in="SourceAlpha" type="matrix" values="0 0 0 0 0 0 0 0 0 0 0 0 0 0 0 0 0 0 127 0" result="hardAlpha"/>
<feOffset dy="4"/>
<feGaussianBlur stdDeviation="2"/>
<feComposite in2="hardAlpha" operator="out"/>
<feColorMatrix type="matrix" values="0 0 0 0 0 0 0 0 0 0 0 0 0 0 0 0 0 0 0.25 0"/>
<feBlend mode="normal" in2="BackgroundImageFix" result="effect1_dropShadow_20:102"/>
<feBlend mode="normal" in="SourceGraphic" in2="effect1_dropShadow_20:102" result="shape"/>
<feColorMatrix in="SourceAlpha" type="matrix" values="0 0 0 0 0 0 0 0 0 0 0 0 0 0 0 0 0 0 127 0" result="hardAlpha"/>
<feOffset dy="4"/>
<feGaussianBlur stdDeviation="2"/>
<feComposite in2="hardAlpha" operator="arithmetic" k2="-1" k3="1"/>
<feColorMatrix type="matrix" values="0 0 0 0 0 0 0 0 0 0 0 0 0 0 0 0 0 0 0.25 0"/>
<feBlend mode="normal" in2="shape" result="effect2_innerShadow_20:102"/>
</filter>
</defs>
</svg>
