<svg width="20" height="20" viewBox="0 0 20 20" fill="none" xmlns="http://www.w3.org/2000/svg">
<path fill-rule="evenodd" clip-rule="evenodd" d="M10 1.81818C5.48131 1.81818 1.81818 5.48131 1.81818 10C1.81818 14.5187 5.48131 18.1818 10 18.1818C14.5187 18.1818 18.1818 14.5187 18.1818 10C18.1818 5.48131 14.5187 1.81818 10 1.81818ZM0 10C0 4.47715 4.47715 0 10 0C15.5228 0 20 4.47715 20 10C20 15.5228 15.5228 20 10 20C4.47715 20 0 15.5228 0 10Z" fill="#111C5A"/>
<path d="M7.97341 8.241L9.31351 5.65467C9.40678 5.47707 9.63348 5.40401 9.82003 5.49169L7.97341 8.241ZM7.97341 8.241L4.9756 8.65576L7.97341 8.241ZM10.6654 8.58604L10.844 8.93072L11.2285 8.98392L13.417 9.28671L11.859 10.7328L11.5583 11.0119L11.6311 11.4156L12.0071 13.5018L9.98805 12.4912L9.65237 12.3232L9.31668 12.4912L7.29761 13.5018L7.67367 11.4156L7.74645 11.0119L7.44578 10.7328L5.88769 9.28671L8.07619 8.98392L8.46073 8.93072L8.63932 8.58604L9.65237 6.63091L10.6654 8.58604ZM5.07839 9.39868C5.07838 9.39868 5.07836 9.39868 5.07835 9.39869L5.07839 9.39868Z" stroke="#111C5A" stroke-width="1.5"/>
</svg>
