<svg width="15" height="17" viewBox="0 0 15 17" fill="none" xmlns="http://www.w3.org/2000/svg">
<path d="M7.5 0C4.91531 0 2.8125 1.90655 2.8125 4.25V6.8H1.875C1.37772 6.8 0.900805 6.97911 0.549175 7.29792C0.197544 7.61673 0 8.04913 0 8.5V15.3C0 15.7509 0.197544 16.1833 0.549175 16.5021C0.900805 16.8209 1.37772 17 1.875 17H13.125C13.6223 17 14.0992 16.8209 14.4508 16.5021C14.8025 16.1833 15 15.7509 15 15.3V8.5C15 8.04913 14.8025 7.61673 14.4508 7.29792C14.0992 6.97911 13.6223 6.8 13.125 6.8H12.1875V4.25C12.1875 1.90655 10.0847 0 7.5 0ZM4.6875 4.25C4.6875 2.8441 5.94938 1.7 7.5 1.7C9.05062 1.7 10.3125 2.8441 10.3125 4.25V6.8H4.6875V4.25ZM8.4375 13.3645V15.3H6.5625V13.3645C6.23474 13.1944 5.97155 12.9381 5.80765 12.6296C5.64375 12.3211 5.58683 11.9748 5.64439 11.6363C5.70195 11.2979 5.8713 10.9832 6.13009 10.7337C6.38889 10.4843 6.72498 10.3119 7.09406 10.2391C7.3682 10.1841 7.65246 10.1857 7.92586 10.2436C8.19925 10.3015 8.45483 10.4143 8.67374 10.5737C8.89264 10.7331 9.06929 10.935 9.19066 11.1646C9.31203 11.3941 9.37503 11.6454 9.375 11.9C9.37446 12.1973 9.28752 12.4892 9.12293 12.7463C8.95835 13.0034 8.72193 13.2167 8.4375 13.3645Z" fill="#656FAB"/>
</svg>
