<svg width="15" height="13" viewBox="0 0 15 13"  fill="#656FAB" xmlns="http://www.w3.org/2000/svg">
<path d="M15 3.373V10.5C15 11.163 14.7531 11.7989 14.3135 12.2678C13.874 12.7366 13.2779 13 12.6562 13H2.34375C1.72215 13 1.12601 12.7366 0.686468 12.2678C0.24693 11.7989 0 11.163 0 10.5V3.373L7.26188 7.931C7.33402 7.97638 7.41624 8.00032 7.5 8.00032C7.58376 8.00032 7.66598 7.97638 7.73812 7.931L15 3.373ZM12.6562 3.09527e-08C13.2329 -9.6716e-05 13.7894 0.226607 14.2193 0.63674C14.6491 1.04687 14.922 1.61164 14.9859 2.223L7.5 6.92L0.0140626 2.223C0.0779609 1.61164 0.350929 1.04687 0.780745 0.63674C1.21056 0.226607 1.76705 -9.6716e-05 2.34375 3.09527e-08H12.6562Z"/>
</svg>
