<svg width="23" height="22" viewBox="0 0 23 22" fill="none" xmlns="http://www.w3.org/2000/svg">
<path fill-rule="evenodd" clip-rule="evenodd" d="M8.59685 6.11833C8.92463 5.94431 9.32236 5.96338 9.63169 6.16795L15.6801 10.168C15.9605 10.3534 16.129 10.6656 16.129 11C16.129 11.3344 15.9605 11.6466 15.6801 11.8321L9.63169 15.8321C9.32236 16.0366 8.92463 16.0557 8.59685 15.8817C8.26907 15.7077 8.06445 15.3688 8.06445 15V7C8.06445 6.63121 8.26907 6.29235 8.59685 6.11833ZM11.8584 10.0443C11.0967 9.54052 10.0806 10.0868 10.0806 11C10.0806 11.9132 11.0967 12.4595 11.8584 11.9557C12.5435 11.5027 12.5435 10.4973 11.8584 10.0443Z" fill="#111C5A"/>
<path fill-rule="evenodd" clip-rule="evenodd" d="M11.0887 2C6.07806 2 2.01613 6.02944 2.01613 11C2.01613 15.9706 6.07806 20 11.0887 20C16.0994 20 20.1613 15.9706 20.1613 11C20.1613 6.02944 16.0994 2 11.0887 2ZM0 11C0 4.92487 4.96458 0 11.0887 0C17.2128 0 22.1774 4.92487 22.1774 11C22.1774 17.0751 17.2128 22 11.0887 22C4.96458 22 0 17.0751 0 11Z" fill="#111C5A"/>
</svg>
